<?xml version="1.0" encoding="utf-8"?>
<!-- Generator: Adobe Illustrator 17.1.0, SVG Export Plug-In . SVG Version: 6.00 Build 0)  -->
<!DOCTYPE svg PUBLIC "-//W3C//DTD SVG 1.1//EN" "http://www.w3.org/Graphics/SVG/1.1/DTD/svg11.dtd">
<svg version="1.1" id="Calque_1" xmlns="http://www.w3.org/2000/svg" xmlns:xlink="http://www.w3.org/1999/xlink" x="0px" y="0px"
	 viewBox="0 0 90 90" enable-background="new 0 0 90 90" xml:space="preserve">
<path fill-rule="evenodd" clip-rule="evenodd" d="M33.9,6.4h22.2c4.1,0,7.4,3.3,7.4,7.4v62.8c0,4.1-3.3,7.4-7.4,7.4H33.9
	c-4.1,0-7.4-3.3-7.4-7.4V13.8C26.5,9.7,29.8,6.4,33.9,6.4z M44.9,11.9c5.1,0,9.2,4.1,9.2,9.2c0,5.1-4.1,9.2-9.2,9.2
	c-5.1,0-9.2-4.1-9.2-9.2C35.6,16,39.8,11.9,44.9,11.9z M44.9,60c5.1,0,9.2,4.1,9.2,9.2c0,5.1-4.1,9.2-9.2,9.2
	c-5.1,0-9.2-4.1-9.2-9.2C35.6,64.1,39.8,60,44.9,60z M44.9,35.9c5.1,0,9.2,4.1,9.2,9.2c0,5.1-4.1,9.2-9.2,9.2
	c-5.1,0-9.2-4.1-9.2-9.2C35.6,40.1,39.8,35.9,44.9,35.9z M44.9,13.8c4.1,0,7.4,3.3,7.4,7.4c0,4.1-3.3,7.4-7.4,7.4
	c-4.1,0-7.4-3.3-7.4-7.4C37.5,17.1,40.8,13.8,44.9,13.8z"/>
</svg>
