<?xml version="1.0" encoding="utf-8"?>
<!-- Generator: Adobe Illustrator 17.1.0, SVG Export Plug-In . SVG Version: 6.00 Build 0)  -->
<!DOCTYPE svg PUBLIC "-//W3C//DTD SVG 1.1//EN" "http://www.w3.org/Graphics/SVG/1.1/DTD/svg11.dtd">
<svg version="1.1" id="Calque_1" xmlns="http://www.w3.org/2000/svg" xmlns:xlink="http://www.w3.org/1999/xlink" x="0px" y="0px"
	 viewBox="0 0 82 46" enable-background="new 0 0 82 46" xml:space="preserve">
<g>
	<path d="M66.9,15.7c-1.5,0-2.9,0.2-4.2,0.6L56.4,1c-0.2-0.6-0.8-1-1.5-1h-7.4C46.7,0,46,0.7,46,1.6c0,0.9,0.7,1.6,1.6,1.6
		c0,0,4.7,0,6.3,0c0.2,0.4,0.8,1.9,1.7,4.1H29.1l-1.3-2.3L34,4.2c0.6,0,1.1-0.5,1.1-1.1c0-0.6-0.5-1.1-1.1-1.1H23.6
		c-0.6,0-1.1,0.5-1.1,1.1c0,0.6-0.2,2.5,1.7,2.3l0.3,0l1.8,3.3l-4.9,8.5c-1.9-0.9-4-1.4-6.2-1.4C6.8,15.7,0,22.5,0,30.9
		S6.8,46,15.1,46c7.8,0,14.2-6,15-13.6h9.5c0,2.7,0,5,0,5.5c-0.8,0-2,0-2,0c-0.4,0-0.8,0.4-0.8,0.8c0,0.4,0.4,0.8,0.8,0.8h2.8
		c0.4,0,0.8-0.4,0.8-0.8c0,0,0-3.1,0-6.5c0,0,0,0,0,0c0,0,0.1-0.1,0.1-0.1c0,0,0.1,0,0.1-0.1c0.1-0.1,0.2-0.1,0.2-0.2c0,0,0,0,0,0
		l0,0c0,0,0,0,0,0l15.7-20.1c0.7,1.8,1.5,3.8,2.3,5.7c-4.7,2.6-7.9,7.6-7.9,13.4c0,8.4,6.8,15.2,15.1,15.2C75.2,46,82,39.2,82,30.9
		S75.2,15.7,66.9,15.7z M28,11.8l9.7,17.5c-1.8,0-4.6,0-7.6,0c-0.5-4.4-2.8-8.1-6.1-10.6C25.6,15.9,27.1,13.3,28,11.8z M26.9,29.3
		c-3.8,0-7.4,0-9.1,0c0.9-1.5,2.7-4.6,4.6-7.9C24.8,23.3,26.5,26.1,26.9,29.3z M15.1,42.9c-6.6,0-11.9-5.4-11.9-12
		c0-6.6,5.4-12,11.9-12c1.6,0,3.2,0.3,4.6,0.9l-6,10.3c-0.3,0.5-0.3,1.1,0,1.6s0.8,0.8,1.4,0.8l11.8,0
		C26.1,38.3,21.1,42.9,15.1,42.9z M41.2,27.3c0-1.8,0-3.2,0-3.6c0.8,0,2,0,2,0c0.4,0,0.8-0.4,0.8-0.8c0-0.4-0.4-0.8-0.8-0.8h-2.8
		c-0.4,0-0.8,0.4-0.8,0.8c0,0,0,1.3,0,3.2l-8.7-15.7c5.4,0,19.4,0,23.6,0C52,13.5,44.5,23.2,41.2,27.3z M66.9,42.9
		c-6.6,0-11.9-5.4-11.9-12c0-4.4,2.4-8.3,6-10.4c2.4,5.9,4.5,11,4.5,11c0.3,0.8,1.2,1.2,2.1,0.9c0.8-0.3,1.2-1.3,0.9-2.1l-4.5-11
		c1-0.3,2-0.4,3-0.4c6.6,0,11.9,5.4,11.9,12C78.8,37.5,73.5,42.9,66.9,42.9z"/>
</g>
</svg>
