<?xml version="1.0" encoding="utf-8"?>
<!-- Generator: Adobe Illustrator 17.1.0, SVG Export Plug-In . SVG Version: 6.00 Build 0)  -->
<!DOCTYPE svg PUBLIC "-//W3C//DTD SVG 1.1//EN" "http://www.w3.org/Graphics/SVG/1.1/DTD/svg11.dtd">
<svg version="1.1" id="Calque_1" xmlns="http://www.w3.org/2000/svg" xmlns:xlink="http://www.w3.org/1999/xlink" x="0px" y="0px"
	 viewBox="0 0 88 32" enable-background="new 0 0 88 32" xml:space="preserve">
<g>
	<path fill-rule="evenodd" clip-rule="evenodd" d="M73.3,27.6H88V4.4C88,4.4,88.5,0,85,0C81.5,0,4.4,0,4.4,0L2.9,14.5L0,17.5v8.7
		c0,0,0.1,1.5,2.9,1.5c2.8,0,10.3,0,10.3,0s-1.1-8.7,7.3-8.7c8,0,7.3,8.7,7.3,8.7h30.8c0,0-0.6-8.7,7.3-8.7S73.3,27.6,73.3,27.6z
		 M4.4,14.5L5.9,4.4h5.9v10.2H4.4z M13.2,14.5V4.4h16.1v10.2H13.2z M30.8,14.5V4.4h17.6v10.2H30.8z M49.8,14.5V4.4h17.6v10.2H49.8z
		 M68.9,14.5V4.4H85v10.2H68.9z M66,20.4c3.6,0,5.9,2.7,5.9,5.8c0,2.9-2.6,5.8-5.9,5.8s-5.9-2.6-5.9-5.8C60.1,23,62.8,20.4,66,20.4z
		 M20.5,20.4c3.6,0,5.9,2.7,5.9,5.8c0,2.9-2.6,5.8-5.9,5.8s-5.9-2.6-5.9-5.8C14.7,23,17.3,20.4,20.5,20.4z"/>
</g>
</svg>
